<?xml version="1.0" standalone="no"?><!DOCTYPE svg PUBLIC "-//W3C//DTD SVG 1.1//EN" "http://www.w3.org/Graphics/SVG/1.1/DTD/svg11.dtd"><svg t="1713523477340" class="icon" viewBox="0 0 1024 1024" version="1.1" xmlns="http://www.w3.org/2000/svg" p-id="2457" xmlns:xlink="http://www.w3.org/1999/xlink" width="24" height="24"><path d="M768 132.266667h-85.333333c-68.266667 0-123.733333 55.466667-123.733334 123.733333v512c0 68.266667 55.466667 123.733333 123.733334 123.733333h85.333333c68.266667 0 123.733333-55.466667 123.733333-123.733333V256c0-68.266667-55.466667-123.733333-123.733333-123.733333zM814.933333 768c0 25.6-21.333333 46.933333-46.933333 46.933333h-85.333333c-25.6 0-46.933333-21.333333-46.933334-46.933333V256c0-25.6 21.333333-46.933333 46.933334-46.933333h85.333333c25.6 0 46.933333 21.333333 46.933333 46.933333v512zM341.333333 132.266667h-85.333333c-68.266667 0-123.733333 55.466667-123.733333 123.733333v85.333333c0 68.266667 55.466667 123.733333 123.733333 123.733334h85.333333c68.266667 0 123.733333-55.466667 123.733334-123.733334v-85.333333c0-68.266667-55.466667-123.733333-123.733334-123.733333z m46.933334 209.066666c0 25.6-21.333333 46.933333-46.933334 46.933334h-85.333333c-25.6 0-46.933333-21.333333-46.933333-46.933334v-85.333333c0-25.6 21.333333-46.933333 46.933333-46.933333h85.333333c25.6 0 46.933333 21.333333 46.933334 46.933333v85.333333zM341.333333 558.933333h-85.333333c-68.266667 0-123.733333 55.466667-123.733333 123.733334v85.333333c0 68.266667 55.466667 123.733333 123.733333 123.733333h85.333333c68.266667 0 123.733333-55.466667 123.733334-123.733333v-85.333333c0-68.266667-55.466667-123.733333-123.733334-123.733334z m46.933334 209.066667c0 25.6-21.333333 46.933333-46.933334 46.933333h-85.333333c-25.6 0-46.933333-21.333333-46.933333-46.933333v-85.333333c0-25.6 21.333333-46.933333 46.933333-46.933334h85.333333c25.6 0 46.933333 21.333333 46.933334 46.933334v85.333333z" fill="#131618" p-id="2458"></path></svg>