<?xml version="1.0" standalone="no"?><!DOCTYPE svg PUBLIC "-//W3C//DTD SVG 1.1//EN" "http://www.w3.org/Graphics/SVG/1.1/DTD/svg11.dtd"><svg t="1713523473921" class="icon" viewBox="0 0 1024 1024" version="1.1" xmlns="http://www.w3.org/2000/svg" p-id="2306" xmlns:xlink="http://www.w3.org/1999/xlink" width="24" height="24"><path d="M768 132.266667h-85.333333c-68.266667 0-123.733333 55.466667-123.733334 123.733333v512c0 68.266667 55.466667 123.733333 123.733334 123.733333h85.333333c68.266667 0 123.733333-55.466667 123.733333-123.733333V256c0-68.266667-55.466667-123.733333-123.733333-123.733333zM341.333333 132.266667h-85.333333c-68.266667 0-123.733333 55.466667-123.733333 123.733333v85.333333c0 68.266667 55.466667 123.733333 123.733333 123.733334h85.333333c68.266667 0 123.733333-55.466667 123.733334-123.733334v-85.333333c0-68.266667-55.466667-123.733333-123.733334-123.733333zM341.333333 558.933333h-85.333333c-68.266667 0-123.733333 55.466667-123.733333 123.733334v85.333333c0 68.266667 55.466667 123.733333 123.733333 123.733333h85.333333c68.266667 0 123.733333-55.466667 123.733334-123.733333v-85.333333c0-68.266667-55.466667-123.733333-123.733334-123.733334z" fill="#131618" p-id="2307"></path></svg>