<?xml version="1.0" standalone="no"?><!DOCTYPE svg PUBLIC "-//W3C//DTD SVG 1.1//EN" "http://www.w3.org/Graphics/SVG/1.1/DTD/svg11.dtd"><svg t="1713523454495" class="icon" viewBox="0 0 1024 1024" version="1.1" xmlns="http://www.w3.org/2000/svg" p-id="1963" width="24" height="24" xmlns:xlink="http://www.w3.org/1999/xlink"><path d="M512 117.333333c-224 0-405.333333 181.333333-405.333333 405.333334 0 81.066667 23.466667 155.733333 64 219.733333l-59.733334 93.866667c-25.6 40.533333 4.266667 91.733333 51.2 91.733333H512c224 0 405.333333-181.333333 405.333333-405.333333s-181.333333-405.333333-405.333333-405.333334zM512 853.333333H192l64-102.4c6.4-10.666667 4.266667-23.466667-6.4-29.866666-40.533333-55.466667-66.133333-123.733333-66.133333-198.4C181.333333 341.333333 330.666667 192 512 192s330.666667 149.333333 330.666667 330.666667S693.333333 853.333333 512 853.333333z" fill="#131618" p-id="1964"></path><path d="M512 345.6c-91.733333 0-166.4 74.666667-166.4 166.4s74.666667 166.4 166.4 166.4 166.4-74.666667 166.4-166.4-74.666667-166.4-166.4-166.4z m0 256c-49.066667 0-89.6-40.533333-89.6-89.6 0-49.066667 40.533333-89.6 89.6-89.6 49.066667 0 89.6 40.533333 89.6 89.6 0 49.066667-40.533333 89.6-89.6 89.6z" fill="#131618" p-id="1965"></path></svg>